<svg width="20" height="20" viewBox="0 0 20 20" fill="none" xmlns="http://www.w3.org/2000/svg">
<path d="M12.1092 7.89258L7.89258 12.1092C7.35091 11.5676 7.01758 10.8259 7.01758 10.0009C7.01758 8.35091 8.35091 7.01758 10.0009 7.01758C10.8259 7.01758 11.5676 7.35091 12.1092 7.89258Z" stroke="#64748B" stroke-width="1.5" stroke-linecap="round" stroke-linejoin="round"/>
<path d="M14.8499 4.80742C13.3915 3.70742 11.7249 3.10742 9.99987 3.10742C7.0582 3.10742 4.31654 4.84076 2.4082 7.84075C1.6582 9.01575 1.6582 10.9908 2.4082 12.1658C3.06654 13.1991 3.8332 14.0908 4.66654 14.8074" stroke="#64748B" stroke-width="1.5" stroke-linecap="round" stroke-linejoin="round"/>
<path opacity="0.4" d="M7.01758 16.2741C7.96758 16.6741 8.97591 16.8908 10.0009 16.8908C12.9426 16.8908 15.6842 15.1574 17.5926 12.1574C18.3426 10.9824 18.3426 9.00742 17.5926 7.83242C17.3176 7.39909 17.0176 6.99076 16.7092 6.60742" stroke="#64748B" stroke-width="1.5" stroke-linecap="round" stroke-linejoin="round"/>
<path opacity="0.4" d="M12.9242 10.584C12.7076 11.759 11.7492 12.7173 10.5742 12.934" stroke="#64748B" stroke-width="1.5" stroke-linecap="round" stroke-linejoin="round"/>
<path d="M7.89102 12.1074L1.66602 18.3324" stroke="#64748B" stroke-width="1.5" stroke-linecap="round" stroke-linejoin="round"/>
<path d="M18.3324 1.66602L12.1074 7.89102" stroke="#64748B" stroke-width="1.5" stroke-linecap="round" stroke-linejoin="round"/>
</svg>
